<svg width="35" height="46" viewBox="0 0 35 46" fill="none" xmlns="http://www.w3.org/2000/svg">
<path d="M0.352 46V0.559998H19.744C21.92 0.559998 23.904 1.008 25.696 1.904C27.5307 2.75733 29.1093 3.93067 30.432 5.424C31.7547 6.87467 32.7787 8.51733 33.504 10.352C34.2293 12.1867 34.592 14.064 34.592 15.984C34.592 18.5867 33.9733 21.0613 32.736 23.408C31.5413 25.7547 29.856 27.6747 27.68 29.168C25.5467 30.6187 23.008 31.344 20.064 31.344H10.848V46H0.352ZM10.848 22.192H19.424C20.2347 22.192 20.9813 21.9573 21.664 21.488C22.3467 21.0187 22.9013 20.3147 23.328 19.376C23.7547 18.4373 23.968 17.2853 23.968 15.92C23.968 14.512 23.712 13.36 23.2 12.464C22.7307 11.5253 22.112 10.8427 21.344 10.416C20.6187 9.98933 19.8507 9.776 19.04 9.776H10.848V22.192Z" fill="#1A237E"/>
</svg>
